<mxfile host="app.diagrams.net" agent="Mozilla/5.0 (Windows NT 10.0; Win64; x64) AppleWebKit/537.36 (KHTML, like Gecko) Chrome/130.0.0.0 Safari/537.36 Edg/130.0.0.0" version="24.7.12">
  <diagram name="Página-1" id="POzB9wZ25K7DmBgVlYvR">
    <mxGraphModel dx="731" dy="1557" grid="1" gridSize="10" guides="1" tooltips="1" connect="1" arrows="1" fold="1" page="1" pageScale="1" pageWidth="827" pageHeight="1169" math="0" shadow="0">
      <root>
        <mxCell id="0" />
        <mxCell id="1" parent="0" />
        <mxCell id="OjHU_7YqH5emqKQTOrnb-23" value="" style="edgeStyle=orthogonalEdgeStyle;rounded=0;orthogonalLoop=1;jettySize=auto;html=1;" edge="1" parent="1">
          <mxGeometry relative="1" as="geometry">
            <mxPoint x="169.99998767258262" y="109.99564102564088" as="sourcePoint" />
            <mxPoint x="265" y="119.99564102564088" as="targetPoint" />
          </mxGeometry>
        </mxCell>
        <mxCell id="OjHU_7YqH5emqKQTOrnb-13" value="" style="ellipse;whiteSpace=wrap;html=1;" vertex="1" parent="1">
          <mxGeometry x="50" y="70" width="120" height="80" as="geometry" />
        </mxCell>
        <mxCell id="OjHU_7YqH5emqKQTOrnb-27" value="" style="edgeStyle=orthogonalEdgeStyle;rounded=0;orthogonalLoop=1;jettySize=auto;html=1;" edge="1" parent="1" source="OjHU_7YqH5emqKQTOrnb-15" target="OjHU_7YqH5emqKQTOrnb-26">
          <mxGeometry relative="1" as="geometry" />
        </mxCell>
        <mxCell id="OjHU_7YqH5emqKQTOrnb-15" value="" style="rounded=1;whiteSpace=wrap;html=1;" vertex="1" parent="1">
          <mxGeometry x="240" y="30" width="120" height="140" as="geometry" />
        </mxCell>
        <mxCell id="OjHU_7YqH5emqKQTOrnb-16" value="cadastro usuario" style="text;html=1;align=center;verticalAlign=middle;whiteSpace=wrap;rounded=0;strokeWidth=15;strokeColor=none;fontSize=15;" vertex="1" parent="1">
          <mxGeometry x="40" y="-20" width="160" height="70" as="geometry" />
        </mxCell>
        <mxCell id="OjHU_7YqH5emqKQTOrnb-17" value="nome" style="rounded=1;whiteSpace=wrap;html=1;" vertex="1" parent="1">
          <mxGeometry x="265" y="70" width="70" height="20" as="geometry" />
        </mxCell>
        <mxCell id="OjHU_7YqH5emqKQTOrnb-18" value="usuario" style="rounded=1;whiteSpace=wrap;html=1;" vertex="1" parent="1">
          <mxGeometry x="265" y="90" width="70" height="20" as="geometry" />
        </mxCell>
        <mxCell id="OjHU_7YqH5emqKQTOrnb-19" value="senha" style="rounded=1;whiteSpace=wrap;html=1;" vertex="1" parent="1">
          <mxGeometry x="265" y="110" width="70" height="20" as="geometry" />
        </mxCell>
        <mxCell id="OjHU_7YqH5emqKQTOrnb-24" value="turma" style="rounded=1;whiteSpace=wrap;html=1;" vertex="1" parent="1">
          <mxGeometry x="265" y="130" width="70" height="20" as="geometry" />
        </mxCell>
        <mxCell id="OjHU_7YqH5emqKQTOrnb-25" value="&lt;font style=&quot;font-size: 10px;&quot;&gt;input&lt;/font&gt;" style="text;html=1;align=center;verticalAlign=middle;whiteSpace=wrap;rounded=0;" vertex="1" parent="1">
          <mxGeometry x="270" y="40" width="60" height="30" as="geometry" />
        </mxCell>
        <mxCell id="OjHU_7YqH5emqKQTOrnb-26" value="" style="rhombus;whiteSpace=wrap;html=1;rounded=1;" vertex="1" parent="1">
          <mxGeometry x="460" y="60" width="80" height="80" as="geometry" />
        </mxCell>
        <mxCell id="OjHU_7YqH5emqKQTOrnb-28" value="&lt;font style=&quot;font-size: 10px;&quot;&gt;validação&lt;/font&gt;" style="text;html=1;align=center;verticalAlign=middle;whiteSpace=wrap;rounded=0;" vertex="1" parent="1">
          <mxGeometry x="470" y="30" width="60" height="30" as="geometry" />
        </mxCell>
      </root>
    </mxGraphModel>
  </diagram>
</mxfile>
